<svg xmlns="http://www.w3.org/2000/svg" viewBox="0 0 900 392" width="900" height="392" role="img" aria-label="Compressed size and throughput compared with upstream zstd across compression levels 1 to 22">
  <title>zstandard versus upstream zstd</title>
  <desc>Left: compressed size relative to upstream, which is identical at every level with a band showing corpora where zstandard emits less. Right: encode and decode throughput as a percentage of upstream, decode near parity and encode rising above it at the top levels.</desc>
  <defs>
    <style>
      /* Generated by scripts/plot_benchmarks.py -- do not edit by hand.
         Keep markup characters out of this comment: XML does not treat style
         content as CDATA, so a literal angle bracket is parsed as a tag. */
      .page    { fill: #ffffff; }
      .grid    { stroke: #d8dee4; stroke-width: 1; }
      .axis    { stroke: #afb8c1; stroke-width: 1.2; }
      .parity  { stroke: #8c959f; stroke-width: 1.5; stroke-dasharray: 5 4; }
      .bandA   { fill: #4f46e5; fill-opacity: 0.16; }
      .lineA   { fill: none; stroke: #4f46e5; stroke-width: 2.4; stroke-linejoin: round; stroke-linecap: round; }
      .lineB   { fill: none; stroke: #0891b2; stroke-width: 2.4; stroke-linejoin: round; stroke-linecap: round; }
      .ptitle  { font-family: ui-sans-serif, -apple-system, "Segoe UI", Roboto, Helvetica, Arial, sans-serif; font-size: 17px; font-weight: 600; fill: #24292f; }
      .psub    { font-family: ui-sans-serif, -apple-system, "Segoe UI", Roboto, Helvetica, Arial, sans-serif; font-size: 12.5px; fill: #57606a; }
      .ytick   { font-family: ui-monospace, SFMono-Regular, Menlo, Consolas, monospace; font-size: 12px; fill: #57606a; text-anchor: end; }
      .xtick   { font-family: ui-monospace, SFMono-Regular, Menlo, Consolas, monospace; font-size: 12px; fill: #57606a; text-anchor: middle; }
      .axlabel { font-family: ui-sans-serif, -apple-system, "Segoe UI", Roboto, Helvetica, Arial, sans-serif; font-size: 12.5px; fill: #57606a; text-anchor: middle; }
      .legend  { font-family: ui-sans-serif, -apple-system, "Segoe UI", Roboto, Helvetica, Arial, sans-serif; font-size: 13px; fill: #24292f; }
      .note    { font-family: ui-sans-serif, -apple-system, "Segoe UI", Roboto, Helvetica, Arial, sans-serif; font-size: 12px; font-weight: 600; fill: #57606a; }
      .end     { text-anchor: end; }
      .caption { font-family: ui-sans-serif, -apple-system, "Segoe UI", Roboto, Helvetica, Arial, sans-serif; font-size: 12px; fill: #6e7781; text-anchor: middle; }
      @media (prefers-color-scheme: dark) {
        .page    { fill: #0d1117; }
        .grid    { stroke: #262c36; }
        .axis    { stroke: #3d444d; }
        .parity  { stroke: #6e7781; }
        .bandA   { fill: #818cf8; fill-opacity: 0.22; }
        .lineA   { stroke: #818cf8; }
        .lineB   { stroke: #22d3ee; }
        .ptitle  { fill: #e6edf3; }
        .psub    { fill: #9aa4b0; }
        .ytick   { fill: #9aa4b0; }
        .xtick   { fill: #9aa4b0; }
        .axlabel { fill: #9aa4b0; }
        .legend  { fill: #e6edf3; }
        .note    { fill: #9aa4b0; }
        .caption { fill: #8b949e; }
      }
    </style>
  </defs>

  <rect x="0" y="0" width="900" height="392" rx="14" class="page"/>
  <text x="66" y="54" class="ptitle">Compressed size vs zstd</text>
  <text x="66" y="73" class="psub">lower is better &#8212; below the line means zstandard emitted fewer bytes</text>
  <line x1="66" y1="112.2" x2="406" y2="112.2" class="grid"/>
  <text x="58" y="116.2" class="ytick">+0%</text>
  <line x1="66" y1="142.5" x2="406" y2="142.5" class="grid"/>
  <text x="58" y="146.5" class="ytick">-5%</text>
  <line x1="66" y1="172.8" x2="406" y2="172.8" class="grid"/>
  <text x="58" y="176.8" class="ytick">-10%</text>
  <line x1="66" y1="203.1" x2="406" y2="203.1" class="grid"/>
  <text x="58" y="207.1" class="ytick">-15%</text>
  <line x1="66" y1="233.4" x2="406" y2="233.4" class="grid"/>
  <text x="58" y="237.4" class="ytick">-20%</text>
  <line x1="66" y1="263.7" x2="406" y2="263.7" class="grid"/>
  <text x="58" y="267.7" class="ytick">-25%</text>
  <line x1="66" y1="294" x2="406" y2="294" class="axis"/>
  <text x="66.0" y="314" class="xtick">1</text>
  <text x="130.8" y="314" class="xtick">5</text>
  <text x="211.7" y="314" class="xtick">10</text>
  <text x="292.7" y="314" class="xtick">15</text>
  <text x="406.0" y="314" class="xtick">22</text>
  <text x="236" y="336" class="axlabel">compression level</text>
  <path d="M66.0,112.2 L82.2,112.2 L98.4,112.2 L114.6,112.2 L130.8,112.2 L147.0,112.2 L163.1,112.2 L179.3,112.2 L195.5,112.2 L211.7,112.2 L227.9,112.2 L244.1,112.2 L260.3,112.2 L276.5,112.2 L292.7,112.2 L308.9,112.2 L325.0,112.2 L341.2,112.0 L357.4,112.0 L373.6,112.0 L389.8,112.0 L406.0,112.0 L406.0,178.1 L389.8,178.1 L373.6,178.1 L357.4,178.1 L341.2,178.1 L325.0,178.1 L308.9,112.9 L292.7,179.4 L276.5,147.3 L260.3,143.2 L244.1,150.6 L227.9,150.6 L211.7,150.5 L195.5,133.8 L179.3,133.8 L163.1,202.9 L147.0,200.5 L130.8,159.7 L114.6,121.4 L98.4,271.0 L82.2,112.2 L66.0,112.5 Z" class="bandA"/>
  <line x1="66" y1="112.2" x2="406" y2="112.2" class="parity"/>
  <path d="M66.0,112.2 L82.2,112.2 L98.4,112.2 L114.6,112.2 L130.8,112.2 L147.0,112.2 L163.1,112.2 L179.3,112.2 L195.5,112.2 L211.7,112.2 L227.9,112.2 L244.1,112.2 L260.3,112.2 L276.5,112.2 L292.7,112.2 L308.9,112.2 L325.0,112.2 L341.2,112.2 L357.4,112.2 L373.6,112.2 L389.8,112.2 L406.0,112.2" class="lineA"/>
  <text x="74" y="102.2" class="note">identical to zstd</text>
  <text x="402" y="286.7" class="note end">band: best and worst of the 11 corpora</text>
  <text x="534" y="54" class="ptitle">Throughput vs zstd</text>
  <text x="534" y="73" class="psub">higher is better &#8212; percentage of upstream on the same bytes</text>
  <line x1="534" y1="94.0" x2="874" y2="94.0" class="grid"/>
  <text x="526" y="98.0" class="ytick">125%</text>
  <line x1="534" y1="165.4" x2="874" y2="165.4" class="grid"/>
  <text x="526" y="169.4" class="ytick">100%</text>
  <line x1="534" y1="236.9" x2="874" y2="236.9" class="grid"/>
  <text x="526" y="240.9" class="ytick">75%</text>
  <line x1="534" y1="294.0" x2="874" y2="294.0" class="grid"/>
  <text x="526" y="298.0" class="ytick">55%</text>
  <line x1="534" y1="294" x2="874" y2="294" class="axis"/>
  <text x="534.0" y="314" class="xtick">1</text>
  <text x="598.8" y="314" class="xtick">5</text>
  <text x="679.7" y="314" class="xtick">10</text>
  <text x="760.7" y="314" class="xtick">15</text>
  <text x="874.0" y="314" class="xtick">22</text>
  <text x="704" y="336" class="axlabel">compression level</text>
  <line x1="534" y1="165.4" x2="874" y2="165.4" class="parity"/>
  <text x="540.0" y="189.2" class="note">parity with zstd</text>
  <path d="M534.0,130.7 L550.2,118.8 L566.4,156.4 L582.6,174.2 L598.8,177.5 L615.0,160.4 L631.1,173.8 L647.3,173.2 L663.5,174.6 L679.7,155.4 L695.9,151.5 L712.1,154.1 L728.3,171.4 L744.5,154.2 L760.7,150.6 L776.9,162.2 L793.0,149.7 L809.2,151.2 L825.4,152.9 L841.6,155.1 L857.8,121.2 L874.0,133.6" class="lineA"/>
  <path d="M534.0,167.4 L550.2,155.8 L566.4,156.6 L582.6,160.8 L598.8,158.4 L615.0,156.8 L631.1,160.2 L647.3,162.7 L663.5,162.4 L679.7,169.7 L695.9,159.8 L712.1,168.3 L728.3,159.8 L744.5,166.0 L760.7,163.6 L776.9,182.9 L793.0,177.8 L809.2,174.0 L825.4,185.4 L841.6,185.2 L857.8,180.2 L874.0,179.3" class="lineB"/>
  <line x1="540" y1="108" x2="564" y2="108" class="lineA"/>
  <text x="570" y="112" class="legend">encode</text>
  <line x1="626" y1="108" x2="650" y2="108" class="lineB"/>
  <text x="656" y="112" class="legend">decode</text>

  <text x="450" y="378" class="caption">11 corpora &#215; levels 1-22, one-shot, median across corpora &#183; zstandard v0.1.8-4-g4f61ec4 vs zstd v1.5.7 &#183; single machine, relative numbers only</text>
</svg>
